<svg id="Capa_1" enable-background="new 0 0 512 512" height="512" viewBox="0 0 512 512" width="512" xmlns="http://www.w3.org/2000/svg"><g><path d="m398.039 120.159c20.404-43.725 3.428-95.071-37.386-118.555-5.174-2.977-11.789-1.129-14.684 4.091l-72.766 131.183 63.561 114.589z"/><path d="m187.154 347.771-14.132-30.284-7.878 14.203c-48.937-27.041-110.331-7-133.883 43.469-22.464 48.139-1.622 105.36 46.552 127.807s105.436 1.621 127.9-46.518l33.731-72.98c-22.457-1.451-42.696-15.137-52.29-35.697zm-48.14 111.428c-24.383 11.351-52.871.453-63.94-23.25-11.23-24.049-.82-52.678 23.282-63.901 24.383-11.353 52.87-.454 63.94 23.249 11.231 24.049.82 52.68-23.282 63.902z"/><path d="m480.738 374.979c-23.521-50.405-84.883-70.545-133.883-43.469l-180.824-325.996c-2.895-5.22-9.51-7.068-14.684-4.091-40.814 23.484-57.791 74.83-37.386 118.555l100.379 215.106c5.271 11.295 16.607 18.515 29.072 18.515h15.423l47.453 102.669c22.464 48.139 79.727 68.965 127.9 46.518 48.172-22.447 69.014-79.669 46.55-127.807zm-224.738-73.979c-8.284 0-15-6.716-15-15s6.716-15 15-15 15 6.716 15 15-6.716 15-15 15zm157.841 158.199c-24.383 11.351-52.871.453-63.94-23.25-11.23-24.049-.82-52.678 23.282-63.901 24.383-11.353 52.87-.454 63.94 23.249 11.232 24.049.821 52.68-23.282 63.902z"/></g></svg>