<?xml version="1.0" encoding="iso-8859-1"?>
<!-- Generator: Adobe Illustrator 19.0.0, SVG Export Plug-In . SVG Version: 6.00 Build 0)  -->
<svg version="1.1" id="Capa_1" xmlns="http://www.w3.org/2000/svg" xmlns:xlink="http://www.w3.org/1999/xlink" x="0px" y="0px"
	 viewBox="0 0 512 512" style="enable-background:new 0 0 512 512;" xml:space="preserve">
<g>
	<g>
		<polygon points="134.75,460.185 2.01,239.935 0,236.445 0,389.185 130.42,465.575 139.77,471.055 		"/>
	</g>
</g>
<g>
	<g>
		<polygon points="90.39,328.465 153.9,433.845 261.55,279.055 		"/>
	</g>
</g>
<g>
	<g>
		<polygon points="89.12,124.505 77.37,115.875 16.14,204.405 27.92,224.795 74.37,301.875 263.76,247.185 		"/>
	</g>
</g>
<g>
	<g>
		<polygon points="242.33,36.565 239.61,25.315 99.51,94.925 106.75,100.245 276.49,219.485 		"/>
	</g>
</g>
<g>
	<g>
		<polygon points="323.39,470.545 289.84,290.935 170.4,462.685 159.99,476.855 178.02,477.925 316.34,486.095 326.22,486.685 		"/>
	</g>
</g>
<g>
	<g>
		<polygon points="270.56,25.755 271.75,30.675 345.46,425.315 443.56,225.925 452.56,206.755 		"/>
	</g>
</g>
<g>
	<g>
		<polygon points="473.77,232.175 470.54,239.045 354.66,474.565 352.14,481.625 355.55,479.315 468.78,402.615 512,311.335 		"/>
	</g>
</g>
<g>
</g>
<g>
</g>
<g>
</g>
<g>
</g>
<g>
</g>
<g>
</g>
<g>
</g>
<g>
</g>
<g>
</g>
<g>
</g>
<g>
</g>
<g>
</g>
<g>
</g>
<g>
</g>
<g>
</g>
</svg>
